<svg xmlns="http://www.w3.org/2000/svg" id="a" width="44" height="44" viewBox="0 0 44 44"><rect width="1" height="14" x="5" y="15" style="fill:#009688;opacity:.5"/><rect width="1" height="14" x="6" y="15" style="fill:#009688"/><rect width="1" height="14" x="7" y="15" style="fill:#009688;opacity:.5"/><rect width="1" height="14" x="8" y="15" style="fill:#009688"/><rect width="1" height="14" x="9" y="15" style="fill:#009688;opacity:.5"/><rect width="1" height="14" x="10" y="15" style="fill:#009688"/><rect width="1" height="14" x="11" y="15" style="fill:#009688;opacity:.5"/><rect width="1" height="14" x="14" y="15" style="fill:#009688;opacity:.5"/><rect width="1" height="14" x="15" y="15" style="fill:#009688"/><rect width="1" height="14" x="16" y="15" style="fill:#009688;opacity:.5"/><rect width="1" height="14" x="17" y="15" style="fill:#009688"/><rect width="1" height="14" x="18" y="15" style="fill:#009688;opacity:.5"/><rect width="1" height="14" x="19" y="15" style="fill:#009688"/><rect width="1" height="14" x="20" y="15" style="fill:#009688;opacity:.5"/><rect width="1" height="14" x="23" y="15" style="fill:#009688;opacity:.5"/><rect width="1" height="14" x="24" y="15" style="fill:#009688"/><rect width="1" height="14" x="25" y="15" style="fill:#009688;opacity:.5"/><rect width="1" height="14" x="26" y="15" style="fill:#009688"/><rect width="1" height="14" x="27" y="15" style="fill:#009688;opacity:.5"/><rect width="1" height="14" x="28" y="15" style="fill:#009688"/><rect width="1" height="14" x="29" y="15" style="fill:#009688;opacity:.5"/><rect width="1" height="14" x="32" y="15" style="fill:#009688;opacity:.5"/><rect width="1" height="14" x="33" y="15" style="fill:#009688"/><rect width="1" height="14" x="34" y="15" style="fill:#009688;opacity:.5"/><rect width="1" height="14" x="35" y="15" style="fill:#009688"/><rect width="1" height="14" x="36" y="15" style="fill:#009688;opacity:.5"/><rect width="1" height="14" x="37" y="15" style="fill:#009688"/><rect width="1" height="14" x="38" y="15" style="fill:#009688;opacity:.5"/><line x1="39.5" x2="39.5" y1="14" y2="30" style="fill:none;stroke:#949494"/><line x1="31.5" x2="31.5" y1="14" y2="30" style="fill:none;stroke:#949494"/><line x1="30.5" x2="30.5" y1="14" y2="30" style="fill:none;stroke:#949494"/><line x1="22.5" x2="22.5" y1="14" y2="30" style="fill:none;stroke:#949494"/><line x1="21.5" x2="21.5" y1="14" y2="30" style="fill:none;stroke:#949494"/><line x1="13.5" x2="13.5" y1="14" y2="30" style="fill:none;stroke:#949494"/><line x1="12.5" x2="12.5" y1="14" y2="30" style="fill:none;stroke:#949494"/><line x1="4.5" x2="4.5" y1="14" y2="30" style="fill:none;stroke:#949494"/><path d="M41.5,23v-9.5c0-1.66-1.34-3-3-3H5.5c-1.66,0-3,1.34-3,3v9.5" style="fill:none;stroke:#949494"/><path d="M39,23H1v11h42v-11h-4ZM7,26v-1c0-.55.45-1,1-1h1c.55,0,1,.45,1,1v1c0,.55-.45,1-1,1h-1c-.55,0-1-.45-1-1ZM16,26v-1c0-.55.45-1,1-1h1c.55,0,1,.45,1,1v1c0,.55-.45,1-1,1h-1c-.55,0-1-.45-1-1ZM25,26v-1c0-.55.45-1,1-1h1c.55,0,1,.45,1,1v1c0,.55-.45,1-1,1h-1c-.55,0-1-.45-1-1ZM34,26v-1c0-.55.45-1,1-1h1c.55,0,1,.45,1,1v1c0,.55-.45,1-1,1h-1c-.55,0-1-.45-1-1Z" style="fill:#949494;opacity:.7"/></svg>