<svg xmlns="http://www.w3.org/2000/svg" width="16" height="16" viewBox="0 0 16 16"><rect width="3" height="6" x="9.5" y=".5" rx="1" transform="translate(22 7) rotate(-180)" style="fill:none;stroke:#009688;stroke-linecap:square;stroke-linejoin:round"/><rect width="1" height="1" y="3" style="fill:#009688"/><rect width="1" height="1" x="2" y="3" style="fill:#009688"/><rect width="1" height="1" x="4" y="3" style="fill:#009688"/><rect width="1" height="1" x="6" y="3" style="fill:#009688"/><rect width="1" height="1" x="8" y="3" style="fill:#009688"/><rect width="3" height="6" x="5.5" y="8.5" rx="1" transform="translate(14 23) rotate(-180)" style="fill:none;stroke:#009688;stroke-linecap:square;stroke-linejoin:round"/><rect width="1" height="1" y="11" style="fill:#009688"/><rect width="1" height="1" x="2" y="11" style="fill:#009688"/><rect width="1" height="1" x="4" y="11" style="fill:#009688"/><rect width="1" height="1" x="10" y="11" style="fill:#949494"/><rect width="1" height="1" x="12" y="11" style="fill:#949494"/><rect width="1" height="1" x="14" y="11" style="fill:#949494"/><rect width="1" height="1" x="14" y="3" style="fill:#949494"/></svg>