<svg xmlns="http://www.w3.org/2000/svg" width="14" height="37" fill="none" viewBox="0 0 14 37"><ellipse cx="3.763" cy=".531" fill="#6F6F6F" rx="3.763" ry=".531" transform="matrix(-1 0 0 1 11.7084 4.24609)"/><path fill="#C7C7C7" fill-rule="evenodd" d="M5.12828 0H10.4539V4.63809V4.6386H10.4539C10.4513 4.78906 9.26009 4.91095 7.7911 4.91095C6.3221 4.91095 5.13094 4.78906 5.12828 4.6386H5.12828V4.63809V0Z" clip-rule="evenodd"/><path fill="#B9B9B9" fill-rule="evenodd" d="M3.42848 4.59961H13.381V26.1824H0.83657V7.19152C0.83657 5.76005 1.99701 4.59961 3.42848 4.59961ZM7.94506 22.1618C5.63569 22.1618 3.76359 20.2897 3.76359 17.9803C3.76359 15.6709 5.63569 13.7988 7.94506 13.7988C10.2544 13.7988 12.1265 15.6709 12.1265 17.9803C12.1265 20.2897 10.2544 22.1618 7.94506 22.1618Z" clip-rule="evenodd"/><rect width="3.763" height="3.892" fill="#AAA" rx="1.882" transform="matrix(-1 0 0 1 9.6178 0.707031)"/><path fill="#DDD" fill-rule="evenodd" d="M13.381 6.28872C10.0637 6.28872 7.60823 7.10403 6.79517 7.51168L3.86814 5.58989C3.54291 5.47342 2.79489 5.31036 2.40462 5.58989C2.01435 5.86942 2.0794 6.40519 2.1607 6.63814L3.86814 8.55993V13.4518L1.91678 14.8494L1.67286 22.0124V23.4101V24.4584C2.32332 24.4584 3.673 24.5282 3.86814 24.8078C4.06327 25.0873 3.94944 25.3901 3.86814 25.5066H5.81949V24.9825H13.381V6.28872ZM7.94506 22.1618C5.63569 22.1618 3.76359 20.2897 3.76359 17.9803C3.76359 15.6709 5.63569 13.7988 7.94506 13.7988C10.2544 13.7988 12.1265 15.6709 12.1265 17.9803C12.1265 20.2897 10.2544 22.1618 7.94506 22.1618Z" clip-rule="evenodd"/><path fill="#818181" d="M11.7086 10.4368V7.7832L7.52715 8.84465L9.74087 10.9676L11.7086 10.4368Z"/><path fill="#818181" d="M8.78137 11.2287L6.52338 9.55273H6.27249V12.7371H6.77427L8.78137 11.2287Z"/><rect width="7.527" height="4.6" fill="#5F5F5F" rx="1.037" transform="matrix(-1 0 0 1 12.5446 29.3672)"/><rect width="3.763" height="9.199" fill="#696969" transform="matrix(-1 0 0 1 6.27258 26.1816)"/><rect width="5.854" height="3.538" fill="#919191" transform="matrix(-1 0 0 1 11.7086 25.8281)"/><path fill="#6C6C6C" d="M11.7086 35.7359V33.9668H6.27271V35.7359L7.26105 36.4435H10.7203L11.7086 35.7359Z"/><path fill="#CFCFCF" d="M9.30419 36.7972L9.6178 36.4434H8.36336L8.67697 36.7972H9.30419Z"/><rect width="3.763" height="9.907" fill="#797979" rx="1.037" transform="matrix(-1 0 0 1 3.76379 26.1816)"/><path stroke="#009688" stroke-width="1.037" d="M4.28197 17.9803C4.28197 20.0034 5.92199 21.6434 7.94506 21.6434C9.96812 21.6434 11.6081 20.0034 11.6081 17.9803C11.6081 15.9572 9.96812 14.3172 7.94506 14.3172C5.92199 14.3172 4.28197 15.9572 4.28197 17.9803Z"/></svg>