<svg xmlns="http://www.w3.org/2000/svg" id="a" width="16" height="16" viewBox="0 0 16 16"><polyline points=".5 1.5 .5 .5 14.5 .5 14.5 4.5" style="fill:none;stroke:#949494;stroke-linecap:square;stroke-linejoin:round"/><polyline points="5.5 14.5 .5 14.5 .5 13.5" style="fill:none;stroke:#949494;stroke-linecap:square;stroke-linejoin:round"/><rect width="2" height="1" x="2" y="5" style="fill:#009688"/><rect width="2" height="1" x="5" y="5" style="fill:#009688"/><rect width="2" height="1" x="8" y="5" style="fill:#009688"/><rect width="2" height="1" x="1" y="3" style="fill:#009688"/><rect width="2" height="1" x="4" y="3" style="fill:#009688"/><rect width="2" height="1" x="7" y="3" style="fill:#009688"/><rect width="2" height="1" x="2" y="9" style="fill:#009688"/><rect width="2" height="1" x="5" y="9" style="fill:#009688"/><rect width="2" height="1" x="1" y="7" style="fill:#009688"/><rect width="2" height="1" x="4" y="7" style="fill:#009688"/><rect width="2" height="1" x="7" y="7" style="fill:#009688"/><rect width="2" height="1" x="1" y="11" style="fill:#009688"/><rect width="1" height="1" x="4" y="11" style="fill:#009688"/><polyline points="14.5 12.5 14.5 14.5 13.5 14.5" style="fill:none;stroke:#949494;stroke-linecap:square;stroke-linejoin:round"/><path d="M7.79,14.5c-.92,0,.67,0,.67-1.67,0-.92.75-1.67,1.67-1.67s1.67.75,1.67,1.67-.75,1.67-1.67,1.67h.33-2.67Z" style="fill:none;stroke:#009688;stroke-miterlimit:10"/><path d="M11.79,11.83l2.64-4.18c.29-.46-.36-.94-.71-.51l-3.26,4.02" style="fill:none;stroke:#009688;stroke-miterlimit:10"/><rect width="1" height="1" y="5" style="fill:#949494"/><rect width="1" height="1" y="9" style="fill:#949494"/></svg>