<svg xmlns="http://www.w3.org/2000/svg" width="24" height="24" fill="none" viewBox="0 0 24 24"><path fill="#D9D9D9" d="M21.9999 2H17.9812V5.5H21.9999V2Z"/><path fill="#D9D9D9" d="M14.056 2H10.0374V5.5H14.056V2Z"/><path fill="#D9D9D9" d="M6.01869 17.8998H2V21.9998H6.01869V17.8998Z"/><path fill="#D9D9D9" d="M14.056 17.8998H10.0374V21.9998H14.056V17.8998Z"/><path fill="#D9D9D9" d="M21.9999 17.8998H17.9812V21.9998H21.9999V17.8998Z"/><path fill="#D9D9D9" d="M6.01869 2H2V5.5H6.01869V2Z"/><path fill="#D9D9D9" d="M10.0375 13.7997H6.0188V17.8997H10.0375V13.7997Z"/><path fill="#D9D9D9" d="M17.9813 13.7997H13.9626V17.8997H17.9813V13.7997Z"/><path fill="#D9D9D9" d="M21.9999 9.59973H17.9812V13.6997H21.9999V9.59973Z"/><path fill="#D9D9D9" d="M14.056 9.59973H10.0374V13.6997H14.056V9.59973Z"/><path fill="#D9D9D9" d="M6.01869 9.59973H2V13.6997H6.01869V9.59973Z"/><path fill="#D9D9D9" d="M10.0375 5.50031H6.0188V9.60031H10.0375V5.50031Z"/><path fill="#D9D9D9" d="M17.9813 5.50031H13.9626V9.60031H17.9813V5.50031Z"/><rect width="19" height="19" x="2.5" y="2.5" stroke="#ACACAC"/></svg>