<svg xmlns="http://www.w3.org/2000/svg" id="a" width="18" height="18" viewBox="0 0 18 18"><rect width="8" height="8" x="4.5" y="4.5" rx="1" ry="1" style="fill:none;stroke:#949494;stroke-linecap:round;stroke-linejoin:round"/><rect width="1" height="1" x="0" y="7" style="fill:#009688"/><rect width="1" height="1" x="0" y="5" style="fill:#009688"/><rect width="1" height="1" x="0" y="3" style="fill:#009688"/><rect width="1" height="1" x="1" y="1" style="fill:#009688"/><rect width="1" height="1" x="3" style="fill:#009688"/><rect width="1" height="1" x="5" style="fill:#009688"/><rect width="1" height="1" x="7" style="fill:#009688"/><rect width="1" height="1" x="9" style="fill:#009688"/><rect width="1" height="1" x="11" style="fill:#009688"/><rect width="1" height="1" x="13" style="fill:#009688"/><rect width="1" height="1" x="0" y="9" style="fill:#009688"/><rect width="1" height="1" x="0" y="11" style="fill:#009688"/><rect width="1" height="1" x="0" y="13" style="fill:#009688"/><rect width="1" height="1" x="16" y="7" style="fill:#009688"/><rect width="1" height="1" x="16" y="5" style="fill:#009688"/><rect width="1" height="1" x="16" y="3" style="fill:#009688"/><rect width="1" height="1" x="15" y="1" style="fill:#009688"/><rect width="1" height="1" x="16" y="9" style="fill:#009688"/><rect width="1" height="1" x="16" y="11" style="fill:#009688"/><rect width="1" height="1" x="16" y="13" style="fill:#009688"/><rect width="1" height="1" x="1" y="15" style="fill:#009688"/><rect width="1" height="1" x="15" y="15" style="fill:#009688"/><path d="M14.5,13.5V4.5c0-1.1-.9-2-2-2H4.5c-1.1,0-2,.9-2,2v9" style="fill:none;stroke:#009688;stroke-linecap:round;stroke-linejoin:round"/><line x1="6.5" x2="10.5" y1="6.5" y2="6.5" style="fill:none;stroke:#949494;stroke-linecap:square;stroke-linejoin:round"/><line x1="8.5" x2="8.5" y1="7.5" y2="6.5" style="fill:none;stroke:#949494;stroke-linecap:square;stroke-linejoin:round"/><line x1="6.5" x2="10.5" y1="10.5" y2="10.5" style="fill:none;stroke:#949494;stroke-linecap:square;stroke-linejoin:round"/><polyline points="4.5 16.5 4.5 14.5 12.5 14.5 12.5 16.5" style="fill:none;stroke:#949494;stroke-linecap:round;stroke-linejoin:round"/></svg>