<svg xmlns="http://www.w3.org/2000/svg" width="18" height="18" viewBox="0 0 18 18"><line x1=".5" x2="4.5" y1="4.5" y2="4.5" style="fill:none;stroke:#949494;stroke-linecap:square;stroke-linejoin:round"/><line x1="12.5" x2="16.5" y1="4.5" y2="4.5" style="fill:none;stroke:#949494;stroke-linecap:square;stroke-linejoin:round"/><rect width="8" height="13" x="4.5" y=".5" rx="1" style="fill:none;stroke:#949494;stroke-linecap:round;stroke-linejoin:round"/><circle cx="8.5" cy="7.5" r="2" style="fill:none;stroke:#949494;stroke-linecap:round;stroke-linejoin:round"/><polyline points="6.5 13.5 8.5 16.5 8.5 16.5 10.5 13.5" style="fill:none;stroke:#949494;stroke-linecap:round;stroke-linejoin:round"/><line x1="2.5" x2="2.5" y1="6.5" y2="13.5" style="fill:none;stroke:#009688;stroke-linecap:round;stroke-linejoin:round"/><line x1="14.5" x2="14.5" y1="6.5" y2="13.5" style="fill:none;stroke:#009688;stroke-linecap:round;stroke-linejoin:round"/><line x1="2.5" x2="2.5" y1="2.5" y2=".5" style="fill:none;stroke:#009688;stroke-linecap:round;stroke-linejoin:round"/><line x1="14.5" x2="14.5" y1=".5" y2="2.5" style="fill:none;stroke:#009688;stroke-linecap:round;stroke-linejoin:round"/><line x1="2.5" x2="5.5" y1="13.5" y2="16.5" style="fill:none;stroke:#009688;stroke-linecap:round;stroke-linejoin:round"/><line x1="14.5" x2="11.5" y1="13.5" y2="16.5" style="fill:none;stroke:#009688;stroke-linecap:round;stroke-linejoin:round"/><rect width="1" height="1" y="2" style="fill:#009688"/><rect width="1" height="1" x="16" y="2" style="fill:#009688"/><rect width="1" height="1" y="6" style="fill:#009688"/><rect width="1" height="1" y="8" style="fill:#009688"/><rect width="1" height="1" y="10" style="fill:#009688"/><rect width="1" height="1" y="12" style="fill:#009688"/><rect width="1" height="1" y="14" style="fill:#009688"/><rect width="1" height="1" x="2" y="16" style="fill:#009688"/><rect width="1" height="1" x="1" y="15" style="fill:#009688"/><rect width="1" height="1" x="16" y="6" style="fill:#009688"/><rect width="1" height="1" x="16" y="8" style="fill:#009688"/><rect width="1" height="1" x="16" y="10" style="fill:#009688"/><rect width="1" height="1" x="16" y="12" style="fill:#009688"/><rect width="1" height="1" x="16" y="14" style="fill:#009688"/><rect width="1" height="1" x="14" y="16" style="fill:#009688"/><rect width="1" height="1" x="15" y="15" style="fill:#009688"/></svg>