<svg xmlns="http://www.w3.org/2000/svg" width="9" height="52" fill="none" viewBox="0 0 9 52"><path fill="url(#paint0_linear_17771_23056)" fill-opacity=".2" fill-rule="evenodd" d="M7.6293 2.92363C7.6293 2.92358 7.6293 2.92353 7.6293 2.92347C7.6293 1.83312 6.12526 0.949219 4.26993 0.949219C2.4146 0.949219 0.910553 1.83312 0.910553 2.92347C0.910553 2.92601 0.910561 2.92855 0.910577 2.93108V51.622H7.62932V2.92363H7.6293Z" clip-rule="evenodd"/><line x1="7.89" x2="7.89" y1="2.609" y2="51.544" stroke="url(#paint1_linear_17771_23056)" stroke-linecap="round" stroke-width=".522"/><line x1=".892" x2=".892" y1="2.609" y2="51.544" stroke="url(#paint2_linear_17771_23056)" stroke-linecap="round" stroke-width=".522"/><path stroke="#D5D5D5" stroke-linecap="round" stroke-width="1.044" d="M2.49797 24.2773L3.99517 25.7745C4.19903 25.9784 4.52955 25.9784 4.73341 25.7745L6.23061 24.2773"/><path stroke="#D5D5D5" stroke-linecap="round" stroke-width="1.044" d="M2.49797 35.9434L3.99517 37.4406C4.19903 37.6444 4.52955 37.6444 4.73341 37.4406L6.23061 35.9434"/><path stroke="#D5D5D5" stroke-linecap="round" stroke-width="1.044" d="M2.49797 44.8086L4.05108 45.9734C4.23669 46.1126 4.49189 46.1126 4.6775 45.9734L6.23061 44.8086"/><defs><linearGradient id="paint0_linear_17771_23056" x1="4.27" x2="4.27" y1=".949" y2="51.622" gradientUnits="userSpaceOnUse"><stop stop-color="#E1E1E1" stop-opacity="0"/><stop offset="1" stop-color="#8A8A8A"/></linearGradient><linearGradient id="paint1_linear_17771_23056" x1="7.629" x2="7.629" y1="49.903" y2="2.348" gradientUnits="userSpaceOnUse"><stop stop-color="#B7B7B7"/><stop offset="1" stop-color="#EDEDED" stop-opacity="0"/></linearGradient><linearGradient id="paint2_linear_17771_23056" x1=".631" x2=".631" y1="49.903" y2="2.348" gradientUnits="userSpaceOnUse"><stop stop-color="#B7B7B7"/><stop offset="1" stop-color="#EDEDED" stop-opacity="0"/></linearGradient></defs></svg>