<svg xmlns="http://www.w3.org/2000/svg" xmlns:xlink="http://www.w3.org/1999/xlink" width="168" height="168" viewBox="0 0 168 168"><defs><linearGradient id="a" x1="170.99" x2="60.656" y1="258.434" y2="44.768" gradientUnits="userSpaceOnUse"><stop offset="0" stop-color="#005caf"/><stop offset="1" stop-color="#4bb6f1"/></linearGradient><linearGradient id="b" x1="120.791" x2="69.768" y1="108.452" y2="55.126" gradientUnits="userSpaceOnUse"><stop offset="0" stop-color="#c6c5c5"/><stop offset="1" stop-color="#f9fafb"/></linearGradient><linearGradient id="c" x1="120.791" x2="69.768" y1="116.452" y2="63.126" xlink:href="#b"/><linearGradient id="d" x1="120.791" x2="69.768" y1="124.452" y2="71.126" xlink:href="#b"/><linearGradient id="e" x1="120.791" x2="69.768" y1="132.452" y2="79.126" xlink:href="#b"/><linearGradient id="f" x1="105.939" x2="67.192" y1="131.2" y2="90.704" xlink:href="#b"/></defs><path d="M108,121H60a8,8,0,0,1-8-8V55a8,8,0,0,1,8-8H98l18,18v48A8,8,0,0,1,108,121Z" style="opacity:.8;fill:url(#a)"/><path d="M116,65H106a8,8,0,0,1-8-8V47Z" style="opacity:.2"/><rect width="46" height="6" x="61" y="67" rx="2" style="fill:url(#b)"/><rect width="46" height="6" x="61" y="75" rx="2" style="fill:url(#c)"/><rect width="46" height="6" x="61" y="83" rx="2" style="fill:url(#d)"/><rect width="46" height="6" x="61" y="91" rx="2" style="fill:url(#e)"/><rect width="34" height="6" x="61" y="99" rx="2" style="fill:url(#f)"/></svg>