<svg xmlns="http://www.w3.org/2000/svg" xmlns:xlink="http://www.w3.org/1999/xlink" width="168" height="168" viewBox="0 0 168 168"><defs><linearGradient id="a" x1="154.654" x2="63.321" y1="253.314" y2="41.98" gradientUnits="userSpaceOnUse"><stop offset="0" stop-color="#0f7c41"/><stop offset="1" stop-color="#0fb341"/></linearGradient><linearGradient id="b" x1="82.728" x2="62.303" y1="86.393" y2="65.046" gradientUnits="userSpaceOnUse"><stop offset="0" stop-color="#c6c5c5"/><stop offset="1" stop-color="#f9fafb"/></linearGradient><linearGradient id="c" x1="80.284" x2="59.858" y1="93.838" y2="72.491" xlink:href="#b"/><linearGradient id="d" x1="77.839" x2="57.414" y1="101.283" y2="79.936" xlink:href="#b"/><linearGradient id="e" x1="82.462" x2="49.887" y1="116.115" y2="82.07" xlink:href="#b"/><linearGradient id="f" x1="114.728" x2="94.303" y1="86.393" y2="65.046" xlink:href="#b"/><linearGradient id="g" x1="112.284" x2="91.858" y1="93.838" y2="72.491" xlink:href="#b"/><linearGradient id="h" x1="109.839" x2="89.414" y1="101.283" y2="79.936" xlink:href="#b"/><linearGradient id="i" x1="114.462" x2="81.887" y1="116.115" y2="82.07" xlink:href="#b"/><linearGradient id="j" x1="98.728" x2="78.303" y1="86.393" y2="65.046" xlink:href="#b"/><linearGradient id="k" x1="96.284" x2="75.858" y1="93.838" y2="72.491" xlink:href="#b"/><linearGradient id="l" x1="93.839" x2="73.414" y1="101.283" y2="79.936" xlink:href="#b"/><linearGradient id="m" x1="98.462" x2="65.887" y1="116.115" y2="82.07" xlink:href="#b"/></defs><path d="M108,121H60a8,8,0,0,1-8-8V55a8,8,0,0,1,8-8H98l18,18v48A8,8,0,0,1,108,121Z" style="opacity:.8;fill:url(#a)"/><path d="M116,65H106a8,8,0,0,1-8-8V47Z" style="opacity:.2"/><rect width="14" height="8" x="61" y="67" rx="2" style="fill:url(#b)"/><rect width="14" height="8" x="61" y="77" rx="2" style="fill:url(#c)"/><rect width="14" height="8" x="61" y="87" rx="2" style="fill:url(#d)"/><rect width="14" height="8" x="61" y="97" rx="2" style="fill:url(#e)"/><rect width="14" height="8" x="93" y="67" rx="2" style="fill:url(#f)"/><rect width="14" height="8" x="93" y="77" rx="2" style="fill:url(#g)"/><rect width="14" height="8" x="93" y="87" rx="2" style="fill:url(#h)"/><rect width="14" height="8" x="93" y="97" rx="2" style="fill:url(#i)"/><rect width="14" height="8" x="77" y="67" rx="2" style="fill:url(#j)"/><rect width="14" height="8" x="77" y="77" rx="2" style="fill:url(#k)"/><rect width="14" height="8" x="77" y="87" rx="2" style="fill:url(#l)"/><rect width="14" height="8" x="77" y="97" rx="2" style="fill:url(#m)"/></svg>