<svg xmlns="http://www.w3.org/2000/svg" width="16" height="16" viewBox="0 0 16 16"><polyline points="2.5 4.5 .5 4.5 .5 .5" style="fill:none;stroke:#009688;stroke-linecap:square;stroke-linejoin:round"/><line x1="5.5" x2="5.5" y1="4.5" y2="1.5" style="fill:none;stroke:#009688;stroke-linecap:square;stroke-linejoin:round"/><line x1="8.5" x2="8.5" y1="4.5" y2="1.5" style="fill:none;stroke:#009688;stroke-linecap:square;stroke-linejoin:round"/><line x1="7.5" x2="6.5" y1=".5" y2=".5" style="fill:none;stroke:#009688;stroke-linecap:square;stroke-linejoin:round"/><line x1="11.5" x2="11.5" y1="4.5" y2=".5" style="fill:none;stroke:#009688;stroke-linecap:square;stroke-linejoin:round"/><line x1="14.5" x2="11.5" y1="4.5" y2=".5" style="fill:none;stroke:#009688;stroke-linecap:round;stroke-linejoin:round"/><line x1="14.5" x2="14.5" y1=".5" y2="4.5" style="fill:none;stroke:#009688;stroke-linecap:square;stroke-linejoin:round"/><line x1="5.5" x2="8.5" y1="3.5" y2="3.5" style="fill:none;stroke:#009688;stroke-linecap:square;stroke-linejoin:round"/><rect width="2" height="2" x="6.5" y="12.5" style="fill:none;stroke:#009688;stroke-linecap:round;stroke-linejoin:round"/><rect width="2" height="2" x=".5" y="7.5" style="fill:none;stroke:#009688;stroke-linecap:round;stroke-linejoin:round"/><rect width="2" height="2" x="12.5" y="7.5" style="fill:none;stroke:#009688;stroke-linecap:round;stroke-linejoin:round"/><rect width="1" height="1" x="10" y="8" transform="translate(21 17) rotate(180)" style="fill:#009688"/><rect width="1" height="1" x="8" y="8" transform="translate(17 17) rotate(180)" style="fill:#009688"/><rect width="1" height="1" x="6" y="8" transform="translate(13 17) rotate(180)" style="fill:#009688"/><rect width="1" height="1" x="4" y="8" transform="translate(9 17) rotate(180)" style="fill:#009688"/><rect width="1" height="1" x="7" y="10" transform="translate(15 21) rotate(180)" style="fill:#009688"/></svg>